<?xml version="1.0" encoding="UTF-8" standalone="no"?>
<!-- Created with Inkscape (http://www.inkscape.org/) -->

<svg
   xmlns:dc="http://purl.org/dc/elements/1.1/"
   xmlns:cc="http://creativecommons.org/ns#"
   xmlns:rdf="http://www.w3.org/1999/02/22-rdf-syntax-ns#"
   xmlns:svg="http://www.w3.org/2000/svg"
   xmlns="http://www.w3.org/2000/svg"
   xmlns:sodipodi="http://sodipodi.sourceforge.net/DTD/sodipodi-0.dtd"
   xmlns:inkscape="http://www.inkscape.org/namespaces/inkscape"
   id="svg2"
   version="1.1"
   inkscape:version="0.91 r13725"
   width="1576.0004"
   height="845.00647"
   viewBox="0 0 1576.0004 845.00647"
   sodipodi:docname="Эмблема_ХАИ.svg">
  <metadata
     id="metadata8">
    <rdf:RDF>
      <cc:Work
         rdf:about="">
        <dc:format>image/svg+xml</dc:format>
        <dc:type
           rdf:resource="http://purl.org/dc/dcmitype/StillImage" />
        <dc:title></dc:title>
      </cc:Work>
    </rdf:RDF>
  </metadata>
  <defs
     id="defs6" />
  <sodipodi:namedview
     pagecolor="#ffffff"
     bordercolor="#666666"
     borderopacity="1"
     objecttolerance="10"
     gridtolerance="10"
     guidetolerance="10"
     inkscape:pageopacity="0"
     inkscape:pageshadow="2"
     inkscape:window-width="1680"
     inkscape:window-height="987"
     id="namedview4"
     showgrid="false"
     inkscape:zoom="0.31803661"
     inkscape:cx="505.3147"
     inkscape:cy="643.59323"
     inkscape:window-x="-8"
     inkscape:window-y="-8"
     inkscape:window-maximized="1"
     inkscape:current-layer="svg2"
     inkscape:snap-page="true"
     fit-margin-top="0"
     fit-margin-left="0"
     fit-margin-right="0"
     fit-margin-bottom="0" />
  <path
     style="fill:#1c4a6b;fill-opacity:1"
     d="m 1,844.53967 c 0,-0.2566 41.2501,-72.5956 91.666996,-160.7532 50.416804,-88.1576 94.213304,-164.7865 97.325704,-170.2865 17.6072,-31.1149 30.3231,-53.0611 30.9986,-53.5 0.4233,-0.275 4.9259,-7.25 10.0059,-15.5 l 9.2363,-15 -1.9203,-3.5 c -7.0919,-12.9254 -78.8776,-140.7364 -93.7964,-167 -4.5301,-7.975 -12.8789,-22.825 -18.5529,-33 -5.674,-10.175 -11.587,-20.6573 -13.1401,-23.294 -1.5531,-2.6367 -2.8238,-4.9751 -2.8238,-5.1964 0,-0.2213 -1.5245,-3.014 -3.3877,-6.206 -3.3383,-5.7189 -11.072604,-19.4698 -33.0745,-58.8036 C 55.6046,100.43997 31.7738,58.05947 14.4957,27.5 11.0751,21.45 6.4142,13.19797 4.1382,9.16216 1.8622,5.12635 0,1.41385 0,0.91216 0,0.36663 58.3816,0.01491 145.25,0.03709 l 145.25,0.0371 9.6669,16.71291 c 5.3168,9.19211 21.4398,36.96297 35.8288,61.71297 14.389,24.75 32.0889,55.2183 39.3331,67.7074 7.2442,12.4891 13.3962,22.7134 13.6712,22.7206 0.275,0.01 4.3219,-6.5343 8.9931,-14.5367 4.6712,-8.0025 9.0016,-14.972 9.6232,-15.4878 0.6216,-0.5159 18.8497,-31.9674 40.5069,-69.8923 L 487.5001,0.0569 632.8235,0.0285 778.1469,1e-4 l -3.2553,5.75 c -1.7904,3.1625 -9.0666,15.875 -16.1693,28.25 -7.1027,12.37497 -33.8467,59.174969 -59.4312,103.99997 -25.5845,44.825 -52.4635,91.85 -59.7311,104.5 -7.2675,12.65 -30.03,52.475 -50.5832,88.5 -20.5532,36.025 -38.4061,66.772 -39.6731,68.3267 -1.267,1.5547 -2.3036,3.1962 -2.3036,3.6478 0,0.4516 -1.8215,3.8193 -4.0478,7.4839 -2.2263,3.6645 -4.4844,7.648 -5.018,8.8522 -0.5336,1.2041 -2.2507,4.2446 -3.8156,6.7566 l -2.8454,4.5673 28.2895,48.4327 c 15.5592,26.638 37.6602,64.5135 49.1134,84.1677 11.4531,19.6542 21.0489,35.7386 21.3239,35.7431 0.517,0.01 21,-35.4125 21,-36.3151 0,-0.2793 4.5543,-8.3052 10.1206,-17.8354 5.5663,-9.5301 31.4832,-54.6775 57.593,-100.3275 26.1098,-45.65 49.1606,-85.7 51.224,-89 3.2964,-5.272 33.594,-58.2327 165.33,-289 17.5826,-30.79997 32.083,-56.1303 32.2233,-56.2896 0.2233,-0.25367 21.59661,36.2415 69.7741,119.1403 7.6236,13.1179 14.2305,24.8225 14.6821,26.0103 0.4516,1.1878 7.7822,14.08 16.2901,28.6493 8.508,14.5694 22.0117,37.7397 30.0083,51.4897 7.9965,13.75 18.1956,31.2546 22.6645,38.899 4.469,7.6444 7.8571,14.1694 7.5293,14.5 -0.3279,0.3306 -8.7695,5.6126 -18.7592,11.7377 l -18.163,11.1368 -4.6339,7.8632 c -2.5487,4.3248 -10.5994,17.9883 -17.8904,30.3633 -7.2911,12.375 -14.4927,24.525 -16.0036,27 -4.2016,6.8824 -22.5399,38.1835 -23.9728,40.9185 l -1.2671,2.4185 4.8753,-2.8092 c 2.6815,-1.545 10.4784,-6.4583 17.3265,-10.9185 6.8482,-4.4601 19.7475,-12.6093 28.6652,-18.1093 26.7294,-16.4854 47.2926,-29.4151 57.8837,-36.3963 5.5,-3.6253 10.45,-6.8192 11,-7.0976 0.55,-0.2784 3.1578,-1.7983 5.7952,-3.3776 2.6373,-1.5793 4.9496,-2.7043 5.1383,-2.5 0.9132,0.9886 9.5665,16.1262 9.5665,16.7352 0,0.3841 -3.9375,3.0635 -8.75,5.9542 -4.8125,2.8907 -13.25,8.1543 -18.75,11.6968 -5.5,3.5425 -14.95,9.5434 -21,13.3353 -6.05,3.792 -16.9947,10.6644 -24.3215,15.2722 -7.3269,4.6078 -20.6119,12.8778 -29.5223,18.3778 -8.9104,5.5 -17.6645,11.0512 -19.4536,12.336 -1.789,1.2847 -11.904,7.6536 -22.4777,14.1529 l -19.2249,11.8171 -4.62539,7.847 c -2.5439,4.3158 -10.5908,17.972 -17.8818,30.347 -7.29111,12.375 -14.49271,24.525 -16.00361,27 -4.2016,6.8824 -22.5399,38.1835 -23.9728,40.9185 l -1.2671,2.4185 4.8753,-2.8092 c 2.6815,-1.545 10.4784,-6.4583 17.3265,-10.9185 6.8481,-4.4601 19.74751,-12.6093 28.66521,-18.1093 25.95579,-16.0083 47.12349,-29.3062 57.88369,-36.3636 5.5,-3.6073 10.9,-7.0653 12,-7.6844 4.9422,-2.7814 44.3997,-26.9726 47.9933,-29.4245 2.2037,-1.5035 12.5567,-8.012 23.0067,-14.4635 10.45,-6.4514 21.25,-13.2289 24,-15.061 9.0326,-6.0179 40.6023,-25.5032 41.3088,-25.4964 0.6861,0.01 10.4762,16.5775 10.9259,18.4934 0.1291,0.55 -6.1589,4.825 -13.9732,9.5 -7.8144,4.675 -16.92,10.347 -20.2347,12.6044 -3.3147,2.2574 -13.2268,8.4896 -22.0268,13.8493 -8.8,5.3597 -19.825,12.3396 -24.5,15.511 -4.675,3.1713 -13.9,9.0397 -20.5,13.0408 -6.6,4.0011 -15.2333,9.4522 -19.1851,12.1135 -3.9518,2.6614 -14.0768,9.0661 -22.5,14.2328 -8.4232,5.1666 -21.9445,13.6136 -30.0473,18.771 -17.2037,10.9501 -35.5078,22.4058 -58.1244,36.3772 -8.9032,5.5 -17.6515,11.0512 -19.4406,12.336 -1.789,1.2847 -11.904,7.6536 -22.4777,14.1529 l -19.2249,11.8171 -4.6254,7.847 c -2.5439,4.3158 -10.5908,17.972 -17.8818,30.347 -7.2911,12.375 -14.4927,24.525 -16.0036,27 -4.2016,6.8824 -22.5399,38.1835 -23.9728,40.9185 l -1.2671,2.4185 4.8753,-2.8092 c 2.6815,-1.545 10.4784,-6.4583 17.3265,-10.9185 6.8481,-4.4601 19.7475,-12.6093 28.6652,-18.1093 25.9558,-16.0083 47.1235,-29.3062 57.8837,-36.3636 5.5,-3.6073 10.9,-7.0664 12,-7.6869 5.35811,-3.0221 22.02011,-13.3682 30.5,-18.9386 5.225,-3.4322 14.9,-9.5156 21.5,-13.5186 6.6,-4.0029 17.4,-10.7494 24,-14.9922 6.6,-4.2428 16.275,-10.3302 21.5,-13.5276 5.225,-3.1974 14.9,-9.2879 21.5,-13.5346 6.6,-4.2466 18.075,-11.4208 25.5,-15.9427 7.425,-4.5219 15.525,-9.6867 18,-11.4773 2.475,-1.7906 12.375,-8.0982 22,-14.017 9.625,-5.9187 20.3341,-12.7277 23.7979,-15.1311 3.4639,-2.4034 6.4497,-4.3698 6.6352,-4.3698 0.5939,0 21.7395,-13.0563 31.5669,-19.4908 13.7038,-8.9727 18.1487,-11.6962 18.493,-11.3314 0.1672,0.1772 6.0433,10.2222 13.0581,22.3222 7.0148,12.1 17.7696,30.55 23.8995,41 6.1299,10.45 15.6237,26.7436 21.0974,36.2081 5.4736,9.4645 10.402,17.2423 10.952,17.284 1.1604,0.088 17.5,26.9671 17.5,28.7879 0,0.6889 1.306,1.22 3,1.22 l 3,0 0.011,-102.75 0.011,-102.75 6.1745,-3.5 c 3.396,-1.925 8.2287,-5.0548 10.7392,-6.9552 2.5105,-1.9004 8.9087,-6.1754 14.2181,-9.5 5.3094,-3.3246 16.7844,-10.5009 25.5,-15.9472 8.7156,-5.4463 20.3465,-12.8538 25.8465,-16.4612 5.5,-3.6073 10.9,-7.0664 12,-7.6869 5.3581,-3.0221 22.0201,-13.3682 30.5,-18.9386 5.225,-3.4322 14.9,-9.5156 21.5,-13.5186 6.6,-4.0029 17.625,-10.8855 24.5,-15.2946 6.875,-4.4091 14.075,-9.0263 16,-10.2605 1.925,-1.2341 8.225,-5.1422 14,-8.6847 5.775,-3.5425 17.37,-10.803 25.7666,-16.1345 8.3967,-5.3314 15.9342,-9.9496 16.75,-10.2627 1.3091,-0.5024 1.4834,33.5783 1.4834,290.04 l 0,290.6094 -209.1617,-0.2524 -209.1616,-0.2523 -14.4156,-23 c -7.9286,-12.65 -31.5403,-50.3601 -52.4704,-83.8002 l -38.0549,-60.8003 -2.3448,2.2029 c -1.2897,1.2116 -6.8388,4.9467 -12.3313,8.3003 -5.4924,3.3535 -17.0903,10.5463 -25.773,15.9839 -20.97849,13.138 -20.90769,13.0933 -35.2867,22.2856 -6.875,4.395 -17.225,10.8632 -23,14.3738 -5.775,3.5106 -12.525,7.8113 -15,9.5572 -2.475,1.7459 -11.475,7.4422 -20,12.6584 -8.525,5.2162 -22.1296,13.7038 -30.2324,18.8612 -16.8376,10.7171 -34.8429,21.9896 -58.1044,36.3772 -8.8923,5.5 -18.1918,11.398 -20.6655,13.1068 -2.4737,1.7087 -8.6185,5.6477 -13.655,8.7532 l -9.1573,5.6464 -152.2453,-0.2532 -152.245,-0.2532 -8.6739,-15.5 c -14.2551,-25.4737 -40.8886,-72.8522 -54.5278,-97 -19.9566,-35.3327 -23.7754,-42 -24.056,-42 -0.8686,0 -21.4356,34.4099 -40.0462,67 -11.4639,20.075 -27.3941,47.975 -35.4004,62 l -14.557,25.5 -152.2171,0.2532 C 69.4977,844.89257 1,844.79627 1,844.53977 Z m 1330.0001,-508.8218 0,-12.4961 9.5515,-5.8609 c 5.2533,-3.2235 10.6135,-6.5359 11.9116,-7.3609 1.2981,-0.825 4.5374,-2.8089 7.1985,-4.4087 2.6611,-1.5997 8.8884,-5.6497 13.8384,-8.9999 4.95,-3.3503 9.9,-6.622 11,-7.2705 6.3268,-3.7302 20.2607,-12.435 28.5,-17.8044 5.225,-3.4051 12.425,-7.9191 16,-10.0311 6.7707,-4 16.598,-10.187 26,-16.369 3.025,-1.989 6.2662,-4.0664 7.2027,-4.6164 0.9365,-0.55 4.9864,-3.025 8.9999,-5.5 4.0134,-2.475 7.7449,-4.6867 8.2923,-4.915 0.5473,-0.2282 3.1302,-1.9157 5.7399,-3.75 2.6096,-1.8342 4.9243,-3.335 5.1439,-3.335 0.2195,0 4.0042,-2.3625 8.4103,-5.25 4.4061,-2.8875 9.9686,-6.4414 12.3611,-7.8976 2.3924,-1.4561 7.655,-4.7186 11.6947,-7.25 4.0396,-2.5313 7.4774,-4.6024 7.6394,-4.6024 0.1621,0 4.957,-3.0743 10.6553,-6.8318 5.6983,-3.7575 12.3855,-8.0518 14.8605,-9.5429 4.8559,-2.9254 5.702,-3.4549 13.3817,-8.3753 2.79,-1.7875 5.4343,-3.25 5.8763,-3.25 0.4419,0 0.6772,5.5053 0.5228,12.234 l -0.2808,12.234 -10,6.2159 c -5.5,3.4188 -12.7,7.8231 -16,9.7875 -8.8391,5.2615 -9.6641,5.7875 -13.4961,8.6048 -2.9833,2.1934 -12.1326,7.9228 -18.2426,11.4238 -2.6517,1.5195 -23.2,14.5094 -29.6042,18.7148 -3.1114,2.0432 -8.5129,5.4182 -12.0034,7.5 -3.4905,2.0819 -7.3795,4.4602 -8.6423,5.2852 -2.9099,1.9011 -13.0749,8.1532 -15.5901,9.5888 -1.0491,0.5989 -2.6981,1.7728 -3.6644,2.6088 -0.9663,0.8361 -5.0516,3.4961 -9.0785,5.9113 -4.0268,2.4151 -8.371,5.0661 -9.6536,5.8911 -1.2827,0.825 -5.188,3.1972 -8.6785,5.2715 -9.2655,5.5062 -9.9968,5.9735 -13.8424,8.8448 -1.9271,1.439 -5.9789,4.05 -9.0039,5.8023 -3.025,1.7523 -10.1642,6.0874 -15.8649,9.6337 -5.7007,3.5462 -10.6217,6.4477 -10.9355,6.4477 -0.3139,0 -1.4997,0.842 -2.6351,1.8712 -2.53,2.2932 -12.3353,9.1288 -13.0947,9.1288 -0.3029,0 -1.7701,0.841 -3.2603,1.8689 -8.0369,5.5436 -18.4497,12.286 -19.737,12.78 -1.2482,0.479 -1.4725,-1.338 -1.4725,-11.931 z m 0.01,-93.9475 0.01,-11.2704 4.2423,-2.4229 c 2.3333,-1.3327 8.7423,-5.3806 14.2423,-8.9954 5.5,-3.6148 10.7812,-7.0245 11.7359,-7.577 6.1101,-3.5361 30.4351,-18.6647 36.2641,-22.554 3.85,-2.5688 10.15,-6.5557 14,-8.8598 3.85,-2.3041 12.175,-7.501 18.5,-11.5487 9.8037,-6.2739 20.7821,-13.1572 27.1644,-17.0318 5.8384,-3.5443 13.1567,-8.1384 18.3356,-11.5104 3.3,-2.1486 8.25,-5.2929 11,-6.9874 2.75,-1.6945 8.5225,-5.3155 12.8278,-8.0467 4.3053,-2.7312 8.0224,-4.9659 8.2603,-4.9659 0.2378,0 2.6732,-1.575 5.4119,-3.5 2.7387,-1.925 5.1591,-3.5 5.3787,-3.5 0.2195,0 4.0042,-2.3625 8.4103,-5.25 4.4061,-2.8875 9.9686,-6.4414 12.3611,-7.897601 2.3924,-1.4561 7.655,-4.7186 11.6947,-7.25 4.0396,-2.5313 7.513,-4.6024 7.7186,-4.6024 0.2056,0 3.0999,-1.9125 6.4318,-4.249999 3.3318,-2.3375 7.0585,-4.7986 8.2814,-5.4691 l 2.2234,-1.2191 0.286,10.687599 c 0.329,12.290001 1.1807,10.9306 -11.786,18.812301 -4.125,2.5073 -10.65,6.5445 -14.5,8.9715 -3.85,2.427 -7.675,4.7625 -8.5,5.1898 -0.825,0.4274 -6.0135,3.702 -11.5299,7.277 -5.5164,3.575 -10.9164,7.0307 -12,7.6792 -6.8964,4.1277 -20.5462,12.7222 -29.9701,18.8703 -6.05,3.9471 -12.35,7.9268 -14,8.8439 -1.65,0.9171 -4.189,2.4413 -5.6423,3.3871 -3.109,2.0233 -13.2411,8.2668 -15.8366,9.7586 -0.9943,0.5715 -2.5788,1.6789 -3.5211,2.4609 -0.9423,0.7821 -2.5268,1.8895 -3.5211,2.461 -2.5269,1.4524 -12.7263,7.7333 -15.4903,9.539 -1.2628,0.825 -5.3133,3.3 -9.0013,5.5 -9.6546,5.7594 -9.3102,5.5444 -17.4956,10.9204 -15.271,10.0267 -30.8429,19.5796 -31.9205,19.5796 -0.4212,0 -1.5803,0.9 -2.5758,2 -0.9955,1.1 -2.2781,2 -2.8503,2 -0.5721,0 -2.1899,1.0935 -3.595,2.43 -2.4761,2.3551 -19.6921,13.4348 -27.3047,17.5725 l -3.75,2.0382 0.01,-11.2703 z m -0.01,-161.7704 0,-79.99997 122.5,0 122.5,0 0,3.53139 c 0,2.44643 -0.5377,3.73311 -1.75,4.18797 -0.9625,0.36113 -3.8829,2.14701 -6.4897,3.96862 -2.6069,1.82161 -4.9876,3.31202 -5.2905,3.31202 -0.3029,0 -1.7701,0.84102 -3.2603,1.86893 -3.1697,2.18635 -16.8887,11.09296 -19.7444,12.8184 -1.0808,0.65304 -7.1401,4.39374 -13.4651,8.31267 -6.325,3.91897 -12.3982,7.65967 -13.4961,8.31267 -1.0978,0.653 -3.5728,2.3647 -5.5,3.8037 -1.9271,1.4389 -6.131,4.1389 -9.3418,6 -3.2109,1.861 -6.8912,4.0586 -8.1785,4.8836 -1.2872,0.825 -5.6352,3.482 -9.662,5.9044 -4.0269,2.4224 -9.7966,6.0887 -12.8216,8.1473 -7.4601,5.0769 -12.653,8.3459 -24.1771,15.219799 -7.9535,4.744 -9.1396,5.4929 -15.0131,9.4785 -2.6341,1.787501 -5.0235,3.250001 -5.3098,3.250001 -0.2863,0 -2.6757,1.4625 -5.3098,3.25 -2.6342,1.7875 -5.6671,3.7892 -6.7398,4.4482 -1.0727,0.6591 -5.1003,3.1341 -8.9503,5.5 -3.8499,2.366 -7.4476,4.4886 -7.995,4.7168 -0.5473,0.2283 -3.1302,1.9158 -5.7399,3.75 -2.6096,1.8343 -5.022,3.335 -5.361,3.335 -0.339,0 -2.2561,1.2899 -4.2603,2.8664 -2.0041,1.5764 -6.1189,4.3 -9.1439,6.0522 -3.025,1.7523 -10.1642,6.0875 -15.8649,9.6337 -5.7007,3.5463 -10.5343,6.4477 -10.7413,6.4477 -0.2071,0 -2.4399,1.575 -4.9617,3.5 -2.5219,1.925 -5.0008,3.5 -5.5087,3.5 -0.5568,0 -0.9234,-31.7573 -0.9234,-80 z"
     id="path3338"
     inkscape:connector-curvature="0" />
</svg>
